<svg id="Layer_1" data-name="Layer 1" xmlns="http://www.w3.org/2000/svg" xmlns:xlink="http://www.w3.org/1999/xlink" viewBox="0 0 199 42.56"><defs><style>.cls-1{fill:#013872;}.cls-2{fill:url(#linear-gradient);}.cls-3{fill:url(#linear-gradient-2);}.cls-4{fill:url(#linear-gradient-3);}</style><linearGradient id="linear-gradient" x1="0.5" y1="23.22" x2="29.89" y2="23.22" gradientUnits="userSpaceOnUse"><stop offset="0" stop-color="#ed9e36"/><stop offset="0.11" stop-color="#9e5918"/><stop offset="0.48" stop-color="#e8a644"/><stop offset="0.78" stop-color="#e3c15d"/><stop offset="1" stop-color="#ae761e"/></linearGradient><linearGradient id="linear-gradient-2" x1="0.5" y1="28.38" x2="16.01" y2="28.38" gradientUnits="userSpaceOnUse"><stop offset="0" stop-color="#ed9e36"/><stop offset="0.26" stop-color="#9e5918"/><stop offset="0.56" stop-color="#e8a644"/><stop offset="0.78" stop-color="#e3c15d"/><stop offset="1" stop-color="#ae761e"/></linearGradient><linearGradient id="linear-gradient-3" x1="20.99" y1="19.97" x2="-0.6" y2="28.22" gradientUnits="userSpaceOnUse"><stop offset="0" stop-color="#ed9e36"/><stop offset="0.3" stop-color="#e8a644"/><stop offset="0.63" stop-color="#e3c15d"/><stop offset="1" stop-color="#ae761e"/></linearGradient></defs><title>new logo file-1</title><path class="cls-1" d="M59.41,32.66a1,1,0,0,1-.19-.62c0-.38.11-.61.24-.68a1.69,1.69,0,0,1,.77-.11,2.66,2.66,0,0,0,1.64-.4,1.55,1.55,0,0,0,.57-.93,11.08,11.08,0,0,0,.09-1.68V18.12a13.5,13.5,0,0,0-.07-1.68,1.39,1.39,0,0,0-.55-.93,2.63,2.63,0,0,0-1.63-.4,1.67,1.67,0,0,1-.8-.15c-.18-.1-.26-.35-.26-.73a.82.82,0,0,1,.17-.51.76.76,0,0,1,.53-.29,23.45,23.45,0,0,0,4.73-1.14,10.25,10.25,0,0,1,1-.27h.13c.47,0,.71.28.71.84v2.78h.13L68,14.34a7.28,7.28,0,0,1,2.4-1.57,8.46,8.46,0,0,1,3.08-.53,7.05,7.05,0,0,1,3.66.91,5.54,5.54,0,0,1,2.3,2.49h.09a16.83,16.83,0,0,1,3.29-2.51,8.21,8.21,0,0,1,4-.89,6.39,6.39,0,0,1,4.77,1.81,6.55,6.55,0,0,1,1.77,4.78v9.41a11.08,11.08,0,0,0,.09,1.68,1.55,1.55,0,0,0,.57.93,2.66,2.66,0,0,0,1.64.4h.26a.86.86,0,0,1,.53.13c.12.09.19.31.22.66a1,1,0,0,1-.2.62.6.6,0,0,1-.5.27c-1.71-.09-3.26-.14-4.64-.14s-2.86.05-4.6.14a.59.59,0,0,1-.53-.27A1.08,1.08,0,0,1,86,32c0-.38.11-.61.25-.68a1.69,1.69,0,0,1,.77-.11,2.63,2.63,0,0,0,1.63-.4,1.52,1.52,0,0,0,.58-.93,11.08,11.08,0,0,0,.09-1.68V18.87a3.89,3.89,0,0,0-1.28-3.12,4.49,4.49,0,0,0-3-1.08,5.37,5.37,0,0,0-3.31,1A5.85,5.85,0,0,0,80,17.72V28.24c0,.18,0,.58,0,1.19a1.64,1.64,0,0,0,.48,1.37,2.48,2.48,0,0,0,1.66.45h.26a.89.89,0,0,1,.56.13,1.17,1.17,0,0,1,0,1.28.6.6,0,0,1-.53.27c-1.74-.09-3.24-.14-4.51-.14s-2.68.05-4.42.14a.59.59,0,0,1-.53-.27,1.08,1.08,0,0,1-.18-.62c0-.38.11-.61.25-.68a1.69,1.69,0,0,1,.77-.11c1,0,1.58-.2,1.81-.6a2.43,2.43,0,0,0,.33-1.37c0-.52,0-.86,0-1V18.87a3.91,3.91,0,0,0-1.26-3.12,4.38,4.38,0,0,0-2.94-1.08,5.37,5.37,0,0,0-3.31,1,6.36,6.36,0,0,0-1.86,2.08V28.24a11.08,11.08,0,0,0,.09,1.68,1.55,1.55,0,0,0,.57.93,2.66,2.66,0,0,0,1.64.4h.27a.88.88,0,0,1,.53.13,1,1,0,0,1,.22.66,1.08,1.08,0,0,1-.18.62.6.6,0,0,1-.53.27c-1.71-.09-3.26-.14-4.64-.14s-2.86.05-4.6.14A.63.63,0,0,1,59.41,32.66Z" transform="translate(-0.5 -1.94)"/><path class="cls-1" d="M97.29,41.21a3.62,3.62,0,0,1-1.48-2.89c0-1.33.37-2.18,1.11-2.54a4.24,4.24,0,0,1,1.72-.56,2.35,2.35,0,0,1,1.24.31c.32.21.48.4.48.58s-.12.2-.35.44a1.7,1.7,0,0,0-.35,1.24,2.31,2.31,0,0,0,.55,1.54,1.91,1.91,0,0,0,1.57.67c1.85,0,3.67-1.9,5.43-5.7a3.81,3.81,0,0,0,.18-.93,3.54,3.54,0,0,0-.22-1.11q-.89-2-3-7.38-1.81-4.81-3-7.34a7.86,7.86,0,0,0-1.42-2.36,3.38,3.38,0,0,0-1.94-.82,2.91,2.91,0,0,0-.49-.09.51.51,0,0,1-.44-.22,1.46,1.46,0,0,1-.09-.62c0-.35.1-.57.29-.66a1.82,1.82,0,0,1,.71-.15l.55,0a7.66,7.66,0,0,1,4.24.78,6.63,6.63,0,0,1,2.56,3.16q1,2.25,1.73,4.29c1.18,3.18,2.13,5.51,2.87,7H110l4.33-11.58a4.5,4.5,0,0,0,.23-1.06.64.64,0,0,0-.45-.66,4.2,4.2,0,0,0-1.46-.18h-.26a.82.82,0,0,1-.51-.13,1.09,1.09,0,0,1-.2-.67,1.16,1.16,0,0,1,.16-.59.49.49,0,0,1,.46-.29c1.68.09,3.11.13,4.29.13.47,0,1.38,0,2.74-.09l.93,0a.55.55,0,0,1,.48.29,1.1,1.1,0,0,1,.18.59c0,.36-.1.58-.22.67a1,1,0,0,1-.53.13,5,5,0,0,0-2.52.53,4.07,4.07,0,0,0-1.5,2.08L112.83,25q-2.27,5.58-3.36,8.22a27.56,27.56,0,0,1-3.72,6.5,6.28,6.28,0,0,1-5.08,2.7A5.18,5.18,0,0,1,97.29,41.21Z" transform="translate(-0.5 -1.94)"/><path class="cls-1" d="M129.33,31.89a13.16,13.16,0,0,1-5-5.11,15.75,15.75,0,0,1-1.83-7.73,16.81,16.81,0,0,1,1.77-7.87,12.59,12.59,0,0,1,5-5.28A15.08,15.08,0,0,1,137,4a14.51,14.51,0,0,1,6.76,1.53,5,5,0,0,1,3,4.7,4.69,4.69,0,0,1-1.19,3.38,4.2,4.2,0,0,1-3.31,1.4,2.93,2.93,0,0,1-1.35-.29,2.11,2.11,0,0,1-.82-.69.89.89,0,0,1-.22-.62s.21-.22.62-.48a3.88,3.88,0,0,0,1.1-1.11,2.91,2.91,0,0,0,.49-1.72A4,4,0,0,0,140.69,7,5.5,5.5,0,0,0,137,5.79a8,8,0,0,0-4.8,1.52,9.86,9.86,0,0,0-3.27,4.47,18.89,18.89,0,0,0-1.17,7A15.93,15.93,0,0,0,129,25.21a11,11,0,0,0,3.56,4.6,8.62,8.62,0,0,0,5.26,1.7,8,8,0,0,0,4.08-1A9.26,9.26,0,0,0,145,27.31a.68.68,0,0,1,.62-.4,1.55,1.55,0,0,1,.79.27c.47.32.71.65.71,1a.57.57,0,0,1-.18.44,16.89,16.89,0,0,1-3.16,3.21,8.8,8.8,0,0,1-3.2,1.48,20.06,20.06,0,0,1-4.33.4A13.6,13.6,0,0,1,129.33,31.89Z" transform="translate(-0.5 -1.94)"/><path class="cls-1" d="M150.48,32.64a1.08,1.08,0,0,1-.22-.69c0-.44.13-.7.29-.79a1.91,1.91,0,0,1,.86-.14,3.17,3.17,0,0,0,1.9-.46,1.93,1.93,0,0,0,.77-1.15,9.57,9.57,0,0,0,.2-1.79V10.08a9.57,9.57,0,0,0-.2-1.79,1.93,1.93,0,0,0-.77-1.15,3.16,3.16,0,0,0-1.9-.47h-.27a1.1,1.1,0,0,1-.64-.15q-.19-.15-.24-.78a1.07,1.07,0,0,1,.22-.68.71.71,0,0,1,.58-.29c1.91.09,3.68.13,5.3.13H163a18.32,18.32,0,0,1,7.45,1.6q3.6,1.59,3.6,6.36a7.58,7.58,0,0,1-1.59,4.73,10.67,10.67,0,0,1-4.14,3.23,13.44,13.44,0,0,1-9.7.44v6.36a10.5,10.5,0,0,0,.2,1.79,2,2,0,0,0,.78,1.15,3.15,3.15,0,0,0,1.9.46h.26a1,1,0,0,1,.64.16,1.12,1.12,0,0,1,.25.77,1.19,1.19,0,0,1-.2.69.7.7,0,0,1-.6.29c-1.89-.09-3.73-.14-5.52-.14-1.6,0-3.35.05-5.26.14A.71.71,0,0,1,150.48,32.64ZM165,19.33a6.4,6.4,0,0,0,2.9-2.21A6.66,6.66,0,0,0,169.13,13q0-3.88-2.47-5.17a11.35,11.35,0,0,0-5.26-1.28,4.76,4.76,0,0,0-1.73.24,1.5,1.5,0,0,0-.81,1,7.05,7.05,0,0,0-.25,2.21v9.55a7.94,7.94,0,0,0,3.14.49A9.25,9.25,0,0,0,165,19.33Z" transform="translate(-0.5 -1.94)"/><path class="cls-1" d="M176.89,32.64a1.19,1.19,0,0,1-.2-.69c0-.44.12-.7.26-.79a1.78,1.78,0,0,1,.84-.14,3.15,3.15,0,0,0,1.9-.46,2,2,0,0,0,.78-1.15,10.5,10.5,0,0,0,.2-1.79V10.08a10.5,10.5,0,0,0-.2-1.79,2,2,0,0,0-.78-1.15,3.14,3.14,0,0,0-1.9-.47h-.26a1,1,0,0,1-.62-.15c-.12-.1-.19-.36-.22-.78a1.19,1.19,0,0,1,.2-.68.63.63,0,0,1,.55-.29c1.95.09,3.7.13,5.26.13h13.88c.76,0,1.15.36,1.15,1.07l.13,6.18a.71.71,0,0,1-.4.64,1.44,1.44,0,0,1-.79.25,2.06,2.06,0,0,1-.93-.2.72.72,0,0,1-.44-.6A18.86,18.86,0,0,0,194.52,9a3.4,3.4,0,0,0-1.23-1.68,4.36,4.36,0,0,0-2.32-.6H185V17.9h8a.67.67,0,0,1,.49.33,1.27,1.27,0,0,1,.18.69,1,1,0,0,1-.18.61.56.56,0,0,1-.49.27h-8v8.35a13,13,0,0,0,.22,1.48,1.77,1.77,0,0,0,.8,1,3.64,3.64,0,0,0,2.08.39h4.06a4.9,4.9,0,0,0,2.34-.5,3.09,3.09,0,0,0,1.26-1.44,24.17,24.17,0,0,0,1.13-3.18c.21-.53.71-.74,1.5-.62a1.85,1.85,0,0,1,.78.35.71.71,0,0,1,.28.67l-.88,5.56a1.2,1.2,0,0,1-.4.76,1.72,1.72,0,0,1-.88.17H182.74c-1.59,0-3.35.05-5.3.14A.63.63,0,0,1,176.89,32.64Z" transform="translate(-0.5 -1.94)"/><path class="cls-2" d="M27.36,18.84l-15.1-8.72L8.1,7.72A5,5,0,0,0,3,7.72,5,5,0,0,0,.5,12.1V34.35A5,5,0,0,0,3,38.73a5,5,0,0,0,5.07,0l3.33-1.92L16,34.16l11.35-6.55a5.07,5.07,0,0,0,0-8.77Zm-2,5.26-12.14,7L11.57,32l-5.5,3.18a1,1,0,0,1-1.51-.87V12.1a1,1,0,0,1,.5-.87,1.08,1.08,0,0,1,.51-.14,1,1,0,0,1,.5.14l6,3.49,13.22,7.63a1,1,0,0,1,.51.87A1,1,0,0,1,25.33,24.1Z" transform="translate(-0.5 -1.94)"/><path class="cls-3" d="M16,34.16,8.1,38.73a5,5,0,0,1-5.07,0A5,5,0,0,1,.5,34.35v-17l4.06,4.41V34.35a1,1,0,0,0,1.51.87l7.12-4.12Z" transform="translate(-0.5 -1.94)"/><path class="cls-4" d="M29.89,23.22a5,5,0,0,1-2.53,4.39L16,34.16l-4.58,2.65L11.57,32l1.62-.94,12.14-7a1,1,0,0,0,.51-.88,1,1,0,0,0-.51-.87L12.11,14.72l.15-4.6,15.1,8.72A5,5,0,0,1,29.89,23.22Z" transform="translate(-0.5 -1.94)"/><rect class="cls-1" x="43.41" width="2.33" height="42.56"/></svg>